<svg width="223.000000" height="23.000000" viewBox="0 0 223 23" fill="none" xmlns="http://www.w3.org/2000/svg" xmlns:xlink="http://www.w3.org/1999/xlink">
	<desc>
			Created with Pixso.
	</desc>
	<defs/>
	<path d="M18.25 15.39C17.71 14.03 17.44 12.54 17.44 10.92C17.44 9.3 17.72 7.82 18.28 6.48C18.86 5.14 19.66 3.98 20.68 3C21.7 2.02 22.9 1.27 24.28 0.75Q26.35 -0.06 28.75 -0.06Q31.18 -0.06 33.22 0.75C34.6 1.27 35.8 2.02 36.82 3Q37.34 3.5 37.78 4.07Q38.64 5.16 39.19 6.48Q40.03 8.49 40.03 10.92Q40.03 13.35 39.19 15.39C38.65 16.75 37.87 17.93 36.85 18.93C35.85 19.93 34.66 20.71 33.28 21.27Q31.21 22.08 28.75 22.08Q26.26 22.08 24.19 21.27C22.81 20.71 21.61 19.93 20.59 18.93Q20.22 18.56 19.89 18.15Q18.88 16.93 18.25 15.39ZM62.81 15.39C62.27 14.03 62 12.54 62 10.92C62 9.3 62.28 7.82 62.84 6.48C63.42 5.14 64.22 3.98 65.24 3C66.26 2.02 67.46 1.27 68.84 0.75C70.22 0.21 71.71 -0.06 73.31 -0.06C74.93 -0.06 76.42 0.21 77.78 0.75C79.16 1.27 80.36 2.02 81.38 3Q81.9 3.5 82.34 4.07Q83.2 5.16 83.75 6.48Q84.59 8.49 84.59 10.92Q84.59 13.35 83.75 15.39C83.21 16.75 82.43 17.93 81.41 18.93C80.41 19.93 79.22 20.71 77.84 21.27C76.46 21.81 74.95 22.08 73.31 22.08C71.65 22.08 70.13 21.81 68.75 21.27C67.37 20.71 66.17 19.93 65.15 18.93Q64.78 18.56 64.45 18.15Q63.44 16.93 62.81 15.39ZM95.37 16.59L98.91 14.04Q99.54 15.18 100.32 16.02C100.86 16.58 101.44 17.01 102.06 17.31C102.7 17.61 103.37 17.76 104.07 17.76Q105.15 17.76 105.86 17.25Q105.88 17.23 105.9 17.22C106.38 16.84 106.62 16.33 106.62 15.69Q106.62 14.93 106.25 14.46Q106.22 14.43 106.2 14.4C105.92 14.06 105.47 13.74 104.85 13.44C104.23 13.14 103.41 12.8 102.39 12.42Q101.64 12.15 100.65 11.67C100.01 11.35 99.4 10.94 98.82 10.44C98.24 9.92 97.76 9.3 97.38 8.58C97 7.84 96.81 6.95 96.81 5.91Q96.81 4.42 97.43 3.25Q97.58 2.97 97.77 2.7C98.43 1.8 99.31 1.12 100.41 0.66C101.53 0.18 102.77 -0.06 104.13 -0.06Q106.23 -0.06 107.76 0.63Q109.32 1.32 110.34 2.37C111.02 3.07 111.54 3.78 111.9 4.5L108.03 6.66C107.73 6.16 107.38 5.73 106.98 5.37C106.6 4.99 106.17 4.7 105.69 4.5Q105.54 4.43 105.39 4.38Q104.83 4.17 104.19 4.17C103.47 4.17 102.92 4.33 102.54 4.65C102.16 4.95 101.97 5.33 101.97 5.79Q101.97 6.08 102.05 6.34Q102.18 6.73 102.51 7.05C102.89 7.41 103.42 7.74 104.1 8.04C104.8 8.34 105.64 8.66 106.62 9C107.36 9.28 108.05 9.61 108.69 9.99C109.33 10.35 109.89 10.79 110.37 11.31C110.87 11.83 111.26 12.43 111.54 13.11Q111.96 14.13 111.96 15.45C111.96 16.51 111.74 17.46 111.3 18.3C110.88 19.12 110.3 19.81 109.56 20.37C108.84 20.93 108.01 21.35 107.07 21.63C106.15 21.93 105.2 22.08 104.22 22.08C102.86 22.08 101.59 21.84 100.41 21.36C99.25 20.86 98.24 20.19 97.38 19.35C96.52 18.51 95.85 17.59 95.37 16.59ZM120.54 7.59Q119.67 8.97 119.67 10.92Q119.67 12.77 120.47 14.14Q120.51 14.2 120.54 14.25C121.12 15.17 121.88 15.87 122.82 16.35C123.78 16.83 124.83 17.07 125.97 17.07C126.97 17.07 127.85 16.94 128.61 16.68C129.37 16.42 130.05 16.08 130.65 15.66C131.25 15.24 131.78 14.79 132.24 14.31L132.24 19.77Q131.63 20.25 130.96 20.63Q130.25 21.04 129.48 21.33C128.48 21.71 127.21 21.9 125.67 21.9C123.99 21.9 122.44 21.64 121.02 21.12C119.6 20.6 118.38 19.85 117.36 18.87C116.34 17.89 115.55 16.73 114.99 15.39C114.43 14.05 114.15 12.56 114.15 10.92C114.15 9.28 114.43 7.79 114.99 6.45Q115.54 5.13 116.39 4.04Q116.84 3.47 117.36 2.97C118.38 1.99 119.6 1.24 121.02 0.72C122.44 0.2 123.99 -0.06 125.67 -0.06Q127.98 -0.06 129.48 0.51C130.48 0.89 131.4 1.41 132.24 2.07L132.24 7.53C131.78 7.05 131.25 6.6 130.65 6.18C130.05 5.74 129.37 5.4 128.61 5.16C127.85 4.9 126.97 4.77 125.97 4.77C124.83 4.77 123.78 5.01 122.82 5.49C121.88 5.97 121.12 6.67 120.54 7.59ZM159.58 15.39C159.04 14.03 158.77 12.54 158.77 10.92Q158.77 8.49 159.61 6.48C160.19 5.14 160.99 3.98 162.01 3C163.03 2.02 164.23 1.27 165.61 0.75C166.99 0.21 168.48 -0.06 170.08 -0.06C171.7 -0.06 173.19 0.21 174.55 0.75C175.93 1.27 177.13 2.02 178.15 3C179.17 3.98 179.96 5.14 180.52 6.48Q181.36 8.49 181.36 10.92Q181.36 13.35 180.52 15.39Q180 16.7 179.19 17.78Q178.73 18.39 178.18 18.93C177.18 19.93 175.99 20.71 174.61 21.27C173.23 21.81 171.72 22.08 170.08 22.08C168.42 22.08 166.9 21.81 165.52 21.27C164.14 20.71 162.94 19.93 161.92 18.93Q161.55 18.56 161.22 18.15Q160.21 16.93 159.58 15.39ZM184.22 15.39C183.68 14.03 183.41 12.54 183.41 10.92Q183.41 8.49 184.25 6.48C184.83 5.14 185.63 3.98 186.65 3C187.67 2.02 188.87 1.27 190.25 0.75C191.63 0.21 193.12 -0.06 194.72 -0.06C196.34 -0.06 197.83 0.21 199.19 0.75C200.57 1.27 201.77 2.02 202.79 3C203.81 3.98 204.6 5.14 205.16 6.48Q206 8.49 206 10.92Q206 13.35 205.16 15.39Q204.64 16.7 203.82 17.78Q203.37 18.39 202.82 18.93C201.82 19.93 200.63 20.71 199.25 21.27C197.87 21.81 196.36 22.08 194.72 22.08C193.06 22.08 191.54 21.81 190.16 21.27C188.78 20.71 187.58 19.93 186.56 18.93Q186.18 18.56 185.85 18.15Q184.85 16.93 184.22 15.39ZM-0.78 21.42L-0.78 0.42L6.87 0.42Q9.57 0.42 11.37 1.29C12.57 1.87 13.48 2.68 14.1 3.72C14.72 4.74 15.03 5.93 15.03 7.29Q15.03 8.99 14.36 10.37Q14.24 10.62 14.1 10.86C13.48 11.88 12.57 12.68 11.37 13.26C11.19 13.35 11 13.43 10.81 13.5L16.29 21.42L10.35 21.42L5.84 14.13L4.29 14.13L4.29 21.42L-0.78 21.42ZM4.29 10.2L6.51 10.2C7.19 10.2 7.77 10.1 8.25 9.9C8.75 9.68 9.13 9.37 9.39 8.97Q9.39 8.97 9.39 8.96Q9.78 8.34 9.78 7.47Q9.78 6.6 9.39 6C9.13 5.58 8.75 5.26 8.25 5.04C7.77 4.82 7.19 4.71 6.51 4.71L4.29 4.71L4.29 10.2ZM48.35 12.3L48.35 17.49L50.93 17.49C51.59 17.49 52.18 17.41 52.7 17.25C53.22 17.07 53.63 16.79 53.93 16.41C54.25 16.01 54.41 15.47 54.41 14.79C54.41 14.35 54.32 13.97 54.14 13.65Q54.03 13.46 53.9 13.3Q53.68 13.05 53.39 12.87C53.07 12.67 52.7 12.53 52.28 12.45C51.88 12.35 51.43 12.3 50.93 12.3L48.35 12.3ZM55.4 10.14C56 10.35 56.56 10.62 57.08 10.95C57.86 11.43 58.48 12.05 58.94 12.81C59.42 13.55 59.66 14.45 59.66 15.51C59.66 16.91 59.32 18.04 58.64 18.9C57.98 19.76 57.04 20.4 55.82 20.82C54.6 21.22 53.16 21.42 51.5 21.42L43.28 21.42L43.28 0.42L50.99 0.42C52.45 0.42 53.73 0.62 54.83 1.02C55.95 1.4 56.83 1.99 57.47 2.79C58.13 3.57 58.46 4.56 58.46 5.76C58.46 6.86 58.13 7.8 57.47 8.58Q56.68 9.54 55.4 10.14ZM48.35 8.76L50.45 8.76C51.03 8.76 51.52 8.67 51.92 8.49Q52.54 8.22 52.87 7.75Q52.87 7.75 52.88 7.74Q52.88 7.73 52.89 7.73Q53.21 7.22 53.21 6.51C53.21 5.79 52.97 5.25 52.49 4.89C52.01 4.53 51.33 4.35 50.45 4.35L48.35 4.35L48.35 8.76ZM136.38 21.42L136.38 0.42L141.45 0.42L141.45 8.07L150.48 8.07L150.48 0.42L155.55 0.42L155.55 21.42L150.48 21.42L150.48 12.63L141.45 12.63L141.45 21.42L136.38 21.42ZM209.24 21.42L209.24 0.42L214.31 0.42L214.31 17.07L222.74 17.07L222.74 21.42L209.24 21.42ZM23.53 7.65C23.05 8.59 22.81 9.68 22.81 10.92C22.81 12.16 23.05 13.26 23.53 14.22C24.03 15.16 24.72 15.9 25.6 16.44C26.5 16.98 27.55 17.25 28.75 17.25Q30.39 17.25 31.65 16.55Q31.74 16.5 31.84 16.44C32.74 15.9 33.43 15.16 33.91 14.22C34.41 13.26 34.66 12.16 34.66 10.92C34.66 9.68 34.42 8.59 33.94 7.65C33.46 6.69 32.78 5.94 31.9 5.4C31.02 4.86 29.97 4.59 28.75 4.59Q27.05 4.59 25.75 5.31Q25.68 5.35 25.6 5.4C24.72 5.94 24.03 6.69 23.53 7.65ZM68.09 7.65C67.61 8.59 67.37 9.68 67.37 10.92C67.37 12.16 67.61 13.26 68.09 14.22C68.59 15.16 69.28 15.9 70.16 16.44C71.06 16.98 72.11 17.25 73.31 17.25Q74.95 17.25 76.21 16.55Q76.3 16.5 76.4 16.44C77.3 15.9 77.99 15.16 78.47 14.22C78.97 13.26 79.22 12.16 79.22 10.92C79.22 9.68 78.98 8.59 78.5 7.65C78.02 6.69 77.34 5.94 76.46 5.4C75.58 4.86 74.53 4.59 73.31 4.59C72.11 4.59 71.06 4.86 70.16 5.4C69.28 5.94 68.59 6.69 68.09 7.65ZM164.86 7.65C164.38 8.59 164.14 9.68 164.14 10.92C164.14 12.16 164.38 13.26 164.86 14.22C165.36 15.16 166.05 15.9 166.93 16.44C167.83 16.98 168.88 17.25 170.08 17.25Q171.72 17.25 172.97 16.55Q173.07 16.5 173.17 16.44C174.07 15.9 174.76 15.16 175.24 14.22Q175.99 12.78 175.99 10.92C175.99 9.68 175.75 8.59 175.27 7.65C174.79 6.69 174.11 5.94 173.23 5.4C172.35 4.86 171.3 4.59 170.08 4.59Q168.38 4.59 167.08 5.31Q167 5.35 166.93 5.4C166.05 5.94 165.36 6.69 164.86 7.65ZM189.5 7.65C189.02 8.59 188.78 9.68 188.78 10.92C188.78 12.16 189.02 13.26 189.5 14.22C190 15.16 190.69 15.9 191.57 16.44C192.47 16.98 193.52 17.25 194.72 17.25Q196.36 17.25 197.61 16.55Q197.71 16.5 197.81 16.44C198.71 15.9 199.4 15.16 199.88 14.22Q200.63 12.78 200.63 10.92C200.63 9.68 200.39 8.59 199.91 7.65C199.43 6.69 198.75 5.94 197.87 5.4C196.99 4.86 195.94 4.59 194.72 4.59Q193.02 4.59 191.72 5.31Q191.64 5.35 191.57 5.4C190.69 5.94 190 6.69 189.5 7.65ZM87.53 21.33C86.99 20.79 86.72 20.14 86.72 19.38C86.72 18.62 86.99 17.97 87.53 17.43C88.07 16.89 88.74 16.62 89.54 16.62C90.38 16.62 91.06 16.89 91.58 17.43C92.1 17.97 92.36 18.62 92.36 19.38C92.36 20.14 92.1 20.79 91.58 21.33Q91.33 21.59 91.04 21.76Q90.4 22.14 89.54 22.14C88.74 22.14 88.07 21.87 87.53 21.33Z" fill="#FFFFFF" fill-opacity="1.000000" fill-rule="evenodd"/>
</svg>
